<svg id="Layer_1" data-name="Layer 1" xmlns="http://www.w3.org/2000/svg" viewBox="0 0 1000 178.66"><defs><style>.cls-1{fill:#fff;}</style></defs><polygon class="cls-1" points="562.76 48.42 562.76 65.16 562.76 142.27 589.37 142.27 589.37 65.16 615.97 65.16 615.97 38.56 562.76 38.56 562.76 48.42"/><polygon class="cls-1" points="116.83 2.51 84.63 2.51 27.57 66.51 27.57 2.51 0 2.51 0 142.27 27.57 142.27 27.57 100.25 46.85 79.23 88.1 142.27 120.68 142.27 65.35 58.8 116.83 2.51"/><path class="cls-1" d="M165.7,36.24c-30.65,0-52,22.94-52,53.79,0,29.88,19.47,54.75,52.82,54.75,28.34,0,43.38-17.16,49-32.58H188.06c-5.39,9.06-13.49,12-21.78,12-12.72,0-24.68-8.67-26.22-26.41H216.6C217.56,61.11,197.7,36.24,165.7,36.24ZM140.45,79.43c2.12-17.55,15-23.72,25.06-23.72,11.18,0,23.52,6.17,24.1,23.72Z"/><path class="cls-1" d="M276.57,36.24c-30.65,0-52,22.94-52,53.79,0,29.88,19.47,54.75,52.82,54.75,28.34,0,43.38-17.16,49-32.58H298.93c-5.39,9.06-13.49,12-21.78,12-12.72,0-24.68-8.67-26.22-26.41h76.54C328.43,61.11,308.57,36.24,276.57,36.24ZM251.32,79.43c2.12-17.55,15-23.72,25.06-23.72,11.18,0,23.52,6.17,24.1,23.72Z"/><path class="cls-1" d="M394.25,36.24c-13.11,0-24.29,5.79-29.88,15.62V38.56H337.76V177.43h26.61V129.16c6.75,11.57,18.89,15.62,29.69,15.62,24.67,0,45.3-21.21,45.3-54.37C439.36,57.83,419.31,36.24,394.25,36.24Zm-6.55,88.1c-14.66,0-24.29-12.33-24.29-33.93,0-20.82,9.63-33.73,24.29-33.73,13.88,0,23.71,13.88,23.71,33.93C411.41,110.85,401.58,124.34,387.7,124.34Z"/><path class="cls-1" d="M499.84,36.24c-30.65,0-52,22.94-52,53.79,0,29.88,19.47,54.75,52.82,54.75,28.34,0,43.38-17.16,49-32.58H522.2c-5.4,9.06-13.49,12-21.78,12-12.73,0-24.68-8.67-26.22-26.41h76.53C551.7,61.11,531.84,36.24,499.84,36.24ZM474.58,79.43c2.12-17.55,15-23.72,25.07-23.72,11.18,0,23.52,6.17,24.09,23.72Z"/><path class="cls-1" d="M669.4,2.51H628V142.27H669.4c44.34,0,77.69-14.46,77.69-70S713.74,2.51,669.4,2.51Zm-1.16,118.17H655.52V24.1h12.72c25.26,0,50.32,6.36,50.32,48.19C718.56,114.51,693.5,120.68,668.24,120.68Z"/><path class="cls-1" d="M792.17,2.51l-52,139.76h28.14l9.84-28.34h54.36l9.83,28.34h29.88L819.93,2.51ZM786,91.38l19.28-55.14,19.28,55.14Z"/><path class="cls-1" d="M931.56,0c-41.64,0-68.44,28.92-68.44,72.29s26.8,72.49,68.44,72.49S1000,115.67,1000,72.29,973.2,0,931.56,0Zm0,122.8c-21.78,0-39.9-17.54-39.9-50.51,0-32.77,18.12-50.31,39.9-50.31s39.91,17.54,39.91,50.31C971.47,105.26,953.35,122.8,931.56,122.8Z"/></svg>