<svg id="Layer_1" data-name="Layer 1" xmlns="http://www.w3.org/2000/svg" viewBox="0 0 1000 180"><polygon points="566.99 48.78 566.99 65.65 566.99 143.34 593.79 143.34 593.79 65.65 620.6 65.65 620.6 38.85 566.99 38.85 566.99 48.78"/><polygon points="117.7 2.52 85.27 2.52 27.77 67.01 27.77 2.52 0 2.52 0 143.34 27.77 143.34 27.77 101 47.2 79.83 88.76 143.34 121.59 143.34 65.84 59.24 117.7 2.52"/><path d="M167,36.51c-30.89,0-52.45,23.12-52.45,54.19,0,30.11,19.62,55.17,53.22,55.17,28.55,0,43.7-17.29,49.34-32.83H189.48c-5.44,9.13-13.6,12-21.95,12-12.82,0-24.86-8.74-26.42-26.61h77.11C219.19,61.57,199.19,36.51,167,36.51ZM141.5,80c2.14-17.67,15.15-23.89,25.25-23.89C178,56.13,190.45,62.35,191,80Z"/><path d="M278.65,36.51c-30.88,0-52.44,23.12-52.44,54.19,0,30.11,19.61,55.17,53.21,55.17,28.56,0,43.71-17.29,49.34-32.83H301.18c-5.44,9.13-13.6,12-21.95,12-12.82,0-24.86-8.74-26.41-26.61h77.1C330.9,61.57,310.89,36.51,278.65,36.51ZM253.2,80c2.14-17.67,15.15-23.89,25.25-23.89,11.27,0,23.7,6.22,24.28,23.89Z"/><path d="M397.21,36.51c-13.21,0-24.47,5.83-30.1,15.74V38.85H340.3V178.76h26.81V130.13c6.79,11.66,19,15.74,29.91,15.74,24.86,0,45.64-21.37,45.64-54.78C442.66,58.27,422.46,36.51,397.21,36.51Zm-6.6,88.77c-14.76,0-24.48-12.43-24.48-34.19,0-21,9.72-34,24.48-34,14,0,23.89,14,23.89,34.19C414.5,111.68,404.59,125.28,390.61,125.28Z"/><path d="M503.59,36.51c-30.88,0-52.44,23.12-52.44,54.19,0,30.11,19.62,55.17,53.22,55.17,28.55,0,43.7-17.29,49.33-32.83H526.12c-5.44,9.13-13.59,12-21.95,12-12.81,0-24.86-8.74-26.41-26.61h77.11C555.84,61.57,535.83,36.51,503.59,36.51ZM478.15,80c2.13-17.67,15.15-23.89,25.25-23.89,11.26,0,23.69,6.22,24.28,23.89Z"/><path d="M671.92,2.52H630.16V143.34h41.76c44.68,0,78.28-14.57,78.28-70.5S716.6,2.52,671.92,2.52Zm-1.16,119.07H657.94V24.28h12.82c25.44,0,50.69,6.41,50.69,48.56C721.45,115.37,696.2,121.59,670.76,121.59Z"/><path d="M793.11,2.52,740.67,143.34H769l9.9-28.55h54.78l9.9,28.55h30.11L821.08,2.52ZM786.9,92.06l19.42-55.55,19.42,55.55Z"/><path d="M931.05,0c-42,0-68.95,29.13-68.95,72.84s27,73,68.95,73,69-29.33,69-73S973,0,931.05,0Zm0,123.72c-21.95,0-40.21-17.67-40.21-50.88,0-33,18.26-50.7,40.21-50.7s40.2,17.68,40.2,50.7C971.25,106.05,953,123.72,931.05,123.72Z"/></svg>